<svg width="16" height="16" viewBox="0 0 16 16" fill="none" xmlns="http://www.w3.org/2000/svg">
<path d="M4.65625 16C5.6875 16 6.71875 15.625 7.5 14.8438L14.3125 8.03125C14.4375 7.875 14.4375 7.65625 14.3125 7.5L14.125 7.3125C13.9688 7.1875 13.75 7.1875 13.5938 7.3125L6.78125 14.125C5.59375 15.3125 3.6875 15.3125 2.5 14.125C1.3125 12.9375 1.3125 11.0312 2.5 9.84375L10.6875 1.65625C11.5312 0.8125 12.9062 0.8125 13.7188 1.65625C14.5625 2.46875 14.5625 3.84375 13.7188 4.6875L6.78125 11.6562C6.28125 12.125 5.46875 12.125 4.96875 11.6562C4.5 11.1562 4.5 10.3438 4.96875 9.84375L10.3125 4.53125C10.4375 4.375 10.4375 4.15625 10.3125 4L10.125 3.8125C9.96875 3.6875 9.75 3.6875 9.59375 3.8125L4.28125 9.15625C3.375 10.0312 3.375 11.4688 4.28125 12.3438C5.15625 13.25 6.59375 13.25 7.46875 12.3438L14.4375 5.40625C15.6562 4.15625 15.6562 2.15625 14.4375 0.9375C13.2188 -0.28125 11.2188 -0.28125 9.96875 0.9375L1.78125 9.125C0.21875 10.6875 0.21875 13.25 1.78125 14.8438C2.5625 15.625 3.625 16 4.65625 16Z" fill="white"/>
</svg>
