<svg width="30" height="23" viewBox="0 0 30 23" fill="none" xmlns="http://www.w3.org/2000/svg">
<path d="M25.125 21.5H4.875C4.64062 21.5 4.5 21.6875 4.5 21.875V22.625C4.5 22.8594 4.64062 23 4.875 23H25.125C25.3125 23 25.5 22.8594 25.5 22.625V21.875C25.5 21.6875 25.3125 21.5 25.125 21.5ZM27.375 6.5C25.9219 6.5 24.75 7.71875 24.75 9.125C24.75 9.5 24.7969 9.82812 24.9375 10.1562L22.3125 11.75C22.0312 11.8906 21.7969 11.9375 21.5156 11.9375C21 11.9375 20.4844 11.6562 20.2031 11.1875L16.7344 5.09375C17.25 4.625 17.625 3.92188 17.625 3.125C17.625 1.71875 16.4062 0.5 15 0.5C13.5469 0.5 12.375 1.71875 12.375 3.125C12.375 3.92188 12.7031 4.625 13.2188 5.09375L9.75 11.1875C9.46875 11.6562 8.95312 11.9375 8.4375 11.9375C8.15625 11.9375 7.92188 11.8906 7.6875 11.75L5.01562 10.1562C5.15625 9.82812 5.25 9.5 5.25 9.125C5.25 7.67188 4.03125 6.5 2.625 6.5C1.17188 6.5 0 7.71875 0 9.125C0 10.5781 1.17188 11.75 2.625 11.75C2.71875 11.75 2.76562 11.75 2.85938 11.75L6 20H24L27.0938 11.75C27.1875 11.75 27.2812 11.75 27.375 11.75C28.7812 11.75 30 10.5781 30 9.125C30 7.71875 28.7812 6.5 27.375 6.5ZM15 2C15.6094 2 16.125 2.51562 16.125 3.125C16.125 3.78125 15.6094 4.25 15 4.25C14.3438 4.25 13.875 3.78125 13.875 3.125C13.875 2.51562 14.3438 2 15 2ZM2.625 10.25C1.96875 10.25 1.5 9.78125 1.5 9.125C1.5 8.51562 1.96875 8 2.625 8C3.23438 8 3.75 8.51562 3.75 9.125C3.75 9.78125 3.23438 10.25 2.625 10.25ZM22.9219 18.5H7.03125L4.40625 11.5156L6.89062 13.0156C7.35938 13.2969 7.875 13.4375 8.4375 13.4375C9.51562 13.4375 10.5 12.875 11.0625 11.9375L14.5781 5.75C14.7188 5.75 14.8594 5.75 15 5.75C15.1406 5.75 15.2344 5.75 15.375 5.75L18.9375 11.9375C19.4531 12.875 20.4375 13.4375 21.5156 13.4375C22.0781 13.4375 22.5938 13.2969 23.0625 13.0156L25.5469 11.5156L22.9219 18.5ZM27.375 10.25C26.7188 10.25 26.25 9.78125 26.25 9.125C26.25 8.51562 26.7188 8 27.375 8C27.9844 8 28.5 8.51562 28.5 9.125C28.5 9.78125 27.9844 10.25 27.375 10.25Z" fill="#0071BB"/>
</svg>
