<svg width="21" height="21" viewBox="0 0 21 21" fill="none" xmlns="http://www.w3.org/2000/svg">
<path d="M20.8047 4.99219C20.7266 4.64062 20.4141 4.32812 20.0625 4.21094C19.6719 4.13281 19.2812 4.21094 19.0078 4.48438L16.5078 6.98438L14.7891 6.71094L14.5156 4.99219L17.0156 2.49219C17.2891 2.21875 17.3672 1.82812 17.2891 1.4375C17.1719 1.08594 16.8594 0.773438 16.5078 0.695312C14.4766 0.1875 12.3672 0.773438 10.9219 2.25781C9.4375 3.74219 8.85156 5.85156 9.39844 7.88281L1.85938 15.4609C0.6875 16.5938 0.6875 18.5078 1.85938 19.6406C2.40625 20.2266 3.14844 20.5 3.92969 20.5C4.75 20.5 5.49219 20.2266 6.03906 19.6406L13.5781 12.1016C15.6094 12.6484 17.7578 12.0625 19.2422 10.5781C20.7266 9.09375 21.3125 7.02344 20.8047 4.99219ZM18.3828 9.71875C17.1328 10.9297 15.2969 11.3594 13.6172 10.8125L13.2266 10.6953L5.17969 18.7812C4.51562 19.4062 3.38281 19.4062 2.71875 18.7812C2.05469 18.0781 2.05469 17.0234 2.71875 16.3203L10.8047 8.23438L10.6875 7.88281C10.1406 6.20312 10.5703 4.36719 11.7812 3.11719C12.6797 2.25781 13.8516 1.75 15.0625 1.75C15.3359 1.75 15.6094 1.78906 15.8828 1.82812L13.1484 4.5625L13.6953 7.80469L16.9375 8.3125L19.6719 5.61719C19.9062 7.10156 19.4375 8.625 18.3828 9.71875ZM4.125 16.75C3.77344 16.75 3.5 17.0625 3.5 17.375C3.5 17.7266 3.77344 18 4.125 18C4.4375 18 4.75 17.7266 4.75 17.375C4.75 17.0625 4.4375 16.75 4.125 16.75Z" fill="#0D7EC7"/>
</svg>
