<svg width="26" height="21" viewBox="0 0 26 21" fill="none" xmlns="http://www.w3.org/2000/svg">
<path d="M16.75 14.9141V11.0469C16.75 10.6953 16.6719 10.3438 16.5156 10.0312L13.4688 2.92188C13.1562 2.21875 12.4922 1.75 11.75 1.75H6.125C5.07031 1.75 4.25 2.60938 4.25 3.625V8H2.375C1.32031 8 0.5 8.85938 0.5 9.875V17.375C0.5 19.1328 1.86719 20.5 3.625 20.5C5.10938 20.5 6.39844 19.4453 6.67188 18H11.7891C12.1016 19.4453 13.3516 20.5 14.875 20.5C16.5938 20.5 18 19.1328 18 17.375C18 16.3594 17.4922 15.4609 16.75 14.9141ZM5.5 3.625C5.5 3.3125 5.77344 3 6.125 3H11.75C11.9844 3 12.2188 3.15625 12.3359 3.39062L15.3828 10.5391C15.4609 10.6953 15.5 10.8516 15.5 11.0469V11.75H10.1484C9.71875 11.75 9.28906 11.5938 8.9375 11.3203L5.5 8.35156V3.625ZM3.625 19.25C2.57031 19.25 1.75 18.4297 1.75 17.375C1.75 16.3594 2.57031 15.5 3.625 15.5C4.64062 15.5 5.5 16.3594 5.5 17.375C5.5 18.4297 4.64062 19.25 3.625 19.25ZM11.7891 16.75H6.67188C6.39844 15.3438 5.10938 14.25 3.625 14.25C2.88281 14.25 2.25781 14.5234 1.75 14.9141V9.875C1.75 9.5625 2.02344 9.25 2.375 9.25H4.64062L8.11719 12.2578C8.70312 12.7656 9.40625 13 10.1484 13H15.5V14.3281C15.2656 14.2891 15.0703 14.25 14.875 14.25C13.3516 14.25 12.1016 15.3438 11.7891 16.75ZM14.875 19.25C13.8203 19.25 13 18.4297 13 17.375C13 16.3594 13.8203 15.5 14.875 15.5C15.8906 15.5 16.75 16.3594 16.75 17.375C16.75 18.4297 15.8906 19.25 14.875 19.25ZM25.1875 16.75H20.5V0.8125C20.5 0.65625 20.3438 0.5 20.1875 0.5H19.5625C19.3672 0.5 19.25 0.65625 19.25 0.8125V17.6875C19.25 17.8828 19.3672 18 19.5625 18H25.1875C25.3438 18 25.5 17.8828 25.5 17.6875V17.0625C25.5 16.9062 25.3438 16.75 25.1875 16.75Z" fill="#0D7EC7"/>
</svg>
