<svg width="18" height="21" viewBox="0 0 18 21" fill="none" xmlns="http://www.w3.org/2000/svg">
<path d="M12.4766 14.25C11.3438 14.25 10.8359 14.875 9 14.875C7.125 14.875 6.61719 14.25 5.48438 14.25C2.59375 14.25 0.25 16.6328 0.25 19.5234C0.25 20.0703 0.679688 20.5 1.22656 20.5H16.7344C17.2812 20.5 17.75 20.0703 17.75 19.5234C17.75 16.6328 15.3672 14.25 12.4766 14.25ZM1.5 19.25C1.61719 17.2188 3.41406 15.5391 5.48438 15.5C6.26562 15.5 7.00781 16.125 9 16.125C10.9922 16.125 11.6953 15.5 12.4766 15.5C14.5469 15.5391 16.3438 17.2188 16.4609 19.25H1.5ZM3.6875 6.75H4.15625C4.07812 7.10156 4 7.64844 4 8C4 10.7734 6.22656 13 9 13C11.7344 13 14 10.7734 14 8C13.9609 7.64844 13.8828 7.10156 13.8047 6.75H14.3125C14.4688 6.75 14.625 6.63281 14.625 6.4375V5.8125C14.625 5.65625 14.4688 5.5 14.3125 5.5H14C14 3.50781 12.6328 1.82812 10.7578 1.32031C10.6016 0.890625 10.0938 0.539062 9.625 0.5H8.375C7.86719 0.539062 7.35938 0.890625 7.20312 1.32031C5.36719 1.82812 4 3.50781 4 5.5H3.6875C3.49219 5.5 3.375 5.65625 3.375 5.8125V6.4375C3.375 6.63281 3.49219 6.75 3.6875 6.75ZM10.875 2.64844C11.8906 3.11719 12.7109 4.40625 12.75 5.5H10.875V2.64844ZM8.375 1.75H9.625V5.5H8.375V1.75ZM5.25 5.5C5.25 4.40625 6.07031 3.11719 7.125 2.64844V5.5H5.25ZM5.48438 6.75H12.5156C12.6328 7.10156 12.7109 7.64844 12.75 8C12.75 10.0703 11.0312 11.75 9 11.75C6.92969 11.75 5.25 10.0703 5.25 8C5.25 7.64844 5.32812 7.10156 5.48438 6.75Z" fill="#0D7EC7"/>
</svg>
