<svg width="28" height="37" viewBox="0 0 28 37" fill="none" xmlns="http://www.w3.org/2000/svg">
<path d="M14 7.25C10.2734 7.25 7.25 10.3438 7.25 14C7.25 17.7266 10.2734 20.75 14 20.75C17.6562 20.75 20.75 17.7266 20.75 14C20.75 10.3438 17.6562 7.25 14 7.25ZM14 18.5C11.4688 18.5 9.5 16.5312 9.5 14C9.5 11.5391 11.4688 9.5 14 9.5C16.4609 9.5 18.5 11.5391 18.5 14C18.5 16.5312 16.4609 18.5 14 18.5ZM26.3047 19.6953C27.2891 18.7109 27.7109 17.1641 27.3594 15.8281C26.8672 14.1406 26.8672 14.4219 27.3594 12.6641C27.7109 11.3281 27.2891 9.85156 26.3047 8.79688C25.1094 7.60156 25.25 7.8125 24.7578 6.125C24.4062 4.71875 23.3516 3.66406 22.0156 3.24219C20.3281 2.82031 20.5391 2.96094 19.3438 1.69531C18.3594 0.710938 16.8828 0.289062 15.4766 0.640625C13.8594 1.13281 14.0703 1.13281 12.4531 0.640625C11.1172 0.289062 9.57031 0.710938 8.58594 1.69531C7.39062 2.96094 7.60156 2.82031 5.98438 3.24219C4.57812 3.66406 3.52344 4.71875 3.17188 6.125C2.67969 7.8125 2.82031 7.60156 1.625 8.79688C0.640625 9.85156 0.21875 11.3281 0.570312 12.6641C1.0625 14.3516 1.0625 14.1406 0.570312 15.8281C0.21875 17.2344 0.640625 18.7109 1.625 19.6953C2.82031 20.9609 2.67969 20.75 3.17188 22.3672C3.3125 22.9297 3.59375 23.4219 3.875 23.8438L0.570312 32.0703C0.21875 32.8438 0.78125 33.6172 1.55469 33.6172C1.625 33.6172 1.41406 33.6172 5.35156 33.4766L7.88281 36.1484C8.09375 36.4297 8.375 36.5 8.72656 36.5C9.14844 36.5 9.57031 36.2891 9.78125 35.8672L13.4375 26.7969C13.5781 26.7266 13.7891 26.6562 14 26.6562C14.1406 26.6562 14.3516 26.7266 14.4922 26.7266L18.2188 35.8672C18.3594 36.2891 18.7812 36.5 19.2031 36.5C19.5547 36.5 19.8359 36.4297 20.0469 36.1484L22.5781 33.4766C26.5156 33.6172 26.3047 33.6172 26.375 33.6172C27.1484 33.6172 27.7109 32.8438 27.3594 32.0703L24.0547 23.8438C24.3359 23.4219 24.6172 22.9297 24.7578 22.3672C25.25 20.6797 25.1094 20.9609 26.3047 19.6953ZM8.30469 33.3359C6.75781 31.7188 7.17969 32.1406 6.26562 31.2266C5 31.2266 5.63281 31.2266 3.3125 31.2969L5.77344 25.1797C5.84375 25.1797 5.91406 25.25 5.98438 25.25C7.46094 25.6719 7.39062 25.5312 8.16406 26.375C8.86719 27.0781 9.78125 27.4297 10.6953 27.5L8.30469 33.3359ZM24.6172 31.2969C22.2969 31.2266 22.9297 31.2266 21.6641 31.2266C20.75 32.1406 21.1719 31.7188 19.625 33.3359L17.2344 27.5C18.1484 27.4297 19.0625 27.0781 19.7656 26.375C20.5391 25.5312 20.4688 25.6719 22.0156 25.25C22.0156 25.25 22.0859 25.1797 22.1562 25.1797L24.6172 31.2969ZM22.5781 21.8047C22.4375 22.4375 21.9453 22.9297 21.3828 23.0703C19.6953 23.4922 19.4141 23.4922 18.1484 24.7578C17.5859 25.3203 16.7422 25.4609 16.0391 25.0391C14.7734 24.1953 13.1562 24.1953 11.8906 25.0391C11.1875 25.4609 10.3438 25.3203 9.78125 24.7578C8.58594 23.5625 8.23438 23.4922 6.54688 23.0703C5.98438 22.9297 5.49219 22.4375 5.35156 21.8047C4.78906 19.6953 4.78906 19.6953 3.24219 18.0781C2.75 17.6562 2.60938 17.0234 2.75 16.3906C3.3125 14.2812 3.38281 14.2812 2.75 12.1016C2.60938 11.4688 2.82031 10.8359 3.24219 10.4141C4.78906 8.79688 4.78906 8.86719 5.35156 6.6875C5.49219 6.05469 5.98438 5.63281 6.54688 5.42188C8.72656 4.85938 8.65625 4.92969 10.2031 3.3125C10.5547 2.89062 11.1875 2.67969 11.8203 2.82031C14 3.45312 13.9297 3.45312 16.1094 2.82031C16.6719 2.67969 17.3047 2.89062 17.7266 3.3125C19.2734 4.92969 19.2734 4.85938 21.3828 5.42188C21.9453 5.63281 22.4375 6.05469 22.5781 6.6875C23.1406 8.86719 23.1406 8.79688 24.6875 10.4141C25.1797 10.8359 25.3203 11.4688 25.1797 12.1016C24.5469 14.2812 24.5469 14.2812 25.1797 16.3906C25.3203 17.0234 25.1094 17.6562 24.6875 18.0781C23.1406 19.6953 23.1406 19.625 22.5781 21.8047Z" fill="white"/>
</svg>
