<svg width="21" height="21" viewBox="0 0 21 21" fill="none" xmlns="http://www.w3.org/2000/svg">
<path d="M20.6094 15.7344L15.7656 10.8516C15.1406 10.2656 14.3594 9.95312 13.5391 9.95312C12.9531 9.95312 12.3281 10.1094 11.8203 10.4609L8.5 7.14062V4.25L3.5 0.5L1 3L4.75 8H7.60156L10.9219 11.3594C10.1406 12.5703 10.2578 14.2109 11.3516 15.3047L16.1953 20.1484C16.4297 20.3828 16.7812 20.5391 17.0938 20.5391C17.4062 20.5391 17.7188 20.3828 17.9531 20.1484L20.6094 17.4922C21.1172 17.0234 21.1172 16.2031 20.6094 15.7344ZM7.25 6.71094V6.75H5.375L2.64062 3.11719L3.61719 2.17969L7.25 4.875V6.71094ZM17.0938 19.25L12.2109 14.4062C11.8594 14.0547 11.6641 13.5859 11.6641 13.0781C11.6641 12.5703 11.8594 12.1016 12.2109 11.75C12.5625 11.3984 13.0312 11.2031 13.5391 11.2031C14.0469 11.2031 14.5156 11.3984 14.8672 11.75L19.75 16.6328L17.0938 19.25ZM3.5 17.375C3.5 17.7266 3.77344 18 4.125 18C4.4375 18 4.75 17.7266 4.75 17.375C4.75 17.0625 4.4375 16.75 4.125 16.75C3.77344 16.75 3.5 17.0625 3.5 17.375ZM11.7812 3.11719C12.6797 2.25781 13.8516 1.75 15.0625 1.75C15.3359 1.75 15.6094 1.78906 15.8828 1.82812L13.1875 4.5625L13.6953 7.80469L16.9375 8.3125L19.6719 5.61719C19.9062 7.10156 19.4375 8.625 18.3828 9.71875C18.0312 10.0703 17.6406 10.3438 17.2109 10.5391L18.1094 11.4766C18.5391 11.2422 18.8906 10.9297 19.2422 10.5781C20.7266 9.09375 21.3125 7.02344 20.8047 4.99219C20.7266 4.60156 20.4141 4.32812 20.0625 4.21094C19.6719 4.13281 19.2812 4.21094 19.0078 4.48438L16.5078 6.98438L14.7891 6.71094L14.5156 4.99219L17.0156 2.49219C17.25 2.21875 17.3672 1.82812 17.2891 1.4375C17.1719 1.08594 16.8594 0.773438 16.5078 0.695312C14.4766 0.1875 12.4062 0.773438 10.9219 2.25781C10.4141 2.76562 10.0234 3.35156 9.75 3.97656V6.63281L10.6094 7.49219C10.2188 5.89062 10.6484 4.25 11.7812 3.11719ZM5.17969 18.7812C4.51562 19.4062 3.38281 19.4062 2.71875 18.7812C2.05469 18.0781 2.05469 16.9844 2.71875 16.3203L8.42188 10.6172L7.5625 9.75781L1.85938 15.4609C0.6875 16.5938 0.6875 18.5078 1.85938 19.6406C2.40625 20.2266 3.14844 20.5 3.92969 20.5C4.75 20.5 5.49219 20.2266 6.03906 19.6406L10.0234 15.6562C9.75 15.3047 9.55469 14.9141 9.39844 14.5234L5.17969 18.7812Z" fill="#0D7EC7"/>
</svg>
