<svg width="14" height="21" viewBox="0 0 14 21" fill="none" xmlns="http://www.w3.org/2000/svg">
<path d="M8.13281 1.39844C7.97656 0.8125 7.46875 0.5 6.96094 0.5C6.49219 0.5 6.02344 0.8125 5.82812 1.39844C4.03125 7.53125 0.125 9.21094 0.125 13.5469C0.125 17.4141 3.17188 20.5 7 20.5C10.7891 20.5 13.875 17.4141 13.875 13.5469C13.875 9.21094 9.96875 7.57031 8.13281 1.39844ZM7 19.25C3.875 19.25 1.375 16.7109 1.375 13.5469C1.375 11.6719 2.27344 10.3828 3.48438 8.58594C4.65625 6.98438 6.0625 4.95312 7 1.94531C7.89844 4.95312 9.34375 6.98438 10.4766 8.625C11.7266 10.3828 12.625 11.6719 12.625 13.5469C12.625 16.7109 10.0859 19.25 7 19.25ZM7 16.75C5.24219 16.75 3.875 15.3828 3.875 13.625C3.875 13.3125 3.5625 13 3.25 13C2.89844 13 2.625 13.3125 2.625 13.625C2.625 16.0469 4.57812 18 7 18C7.3125 18 7.625 17.7266 7.625 17.375C7.625 17.0625 7.3125 16.75 7 16.75Z" fill="#0D7EC7"/>
</svg>
