<svg width="16" height="21" viewBox="0 0 16 21" fill="none" xmlns="http://www.w3.org/2000/svg">
<path d="M13.625 3H10.1484C10.1484 2.92188 10.1875 2.80469 10.1875 2.6875C10.1875 1.51562 9.17188 0.5 8 0.5C6.78906 0.5 5.8125 1.51562 5.8125 2.6875C5.8125 2.80469 5.8125 2.92188 5.8125 3H2.375C1.32031 3 0.5 3.85938 0.5 4.875V18.625C0.5 19.6797 1.32031 20.5 2.375 20.5H13.625C14.6406 20.5 15.5 19.6797 15.5 18.625V4.875C15.5 3.85938 14.6406 3 13.625 3ZM8 1.75C8.50781 1.75 8.9375 2.17969 8.9375 2.6875C8.9375 3.23438 8.50781 3.625 8 3.625C7.45312 3.625 7.0625 3.23438 7.0625 2.6875C7.0625 2.17969 7.45312 1.75 8 1.75ZM14.25 18.625C14.25 18.9766 13.9375 19.25 13.625 19.25H2.375C2.02344 19.25 1.75 18.9766 1.75 18.625V4.875C1.75 4.5625 2.02344 4.25 2.375 4.25H4.25V5.03125C4.25 5.30469 4.44531 5.5 4.71875 5.5H11.2812C11.5156 5.5 11.75 5.30469 11.75 5.03125V4.25H13.625C13.9375 4.25 14.25 4.5625 14.25 4.875V18.625ZM11.9453 9.40625C11.75 9.21094 11.4375 9.21094 11.2812 9.40625L6.67188 13.9766L4.71875 11.9844C4.52344 11.7891 4.21094 11.7891 4.05469 11.9844L3.70312 12.3359C3.50781 12.4922 3.50781 12.8047 3.70312 13L6.32031 15.6172C6.51562 15.8125 6.82812 15.8125 6.98438 15.6172L12.2578 10.4219C12.4531 10.2266 12.4531 9.91406 12.2578 9.75781L11.9453 9.40625Z" fill="#0D7EC7"/>
</svg>
