<svg width="38" height="37" viewBox="0 0 38 37" fill="none" xmlns="http://www.w3.org/2000/svg">
<path d="M35.875 12.5938L25.6094 11.1172L20.9688 1.76562C20.1953 0.148438 17.8047 0.078125 16.9609 1.76562L12.3906 11.1172L2.05469 12.5938C0.226562 12.875 -0.476562 15.125 0.859375 16.4609L8.24219 23.7031L6.48438 33.8984C6.20312 35.7266 8.17188 37.1328 9.78906 36.2891L19 31.4375L28.1406 36.2891C29.7578 37.1328 31.7266 35.7266 31.4453 33.8984L29.6875 23.7031L37.0703 16.4609C38.4062 15.125 37.7031 12.875 35.875 12.5938ZM27.2266 22.8594L29.1953 34.25L19 28.9062L8.73438 34.25L10.7031 22.8594L2.40625 14.8438L13.8672 13.1562L19 2.75L24.0625 13.1562L35.5234 14.8438L27.2266 22.8594Z" fill="white"/>
</svg>
