<svg width="24" height="22" viewBox="0 0 24 22" fill="none" xmlns="http://www.w3.org/2000/svg">
<path d="M0.75 9.5H16.5C19.2656 9.5 21.4688 6.96875 20.8594 4.0625C20.5312 2.32812 19.125 0.96875 17.4375 0.640625C14.8125 0.078125 12.4688 1.8125 12.0469 4.20312C11.9531 4.625 12.3281 5 12.75 5H13.5938C13.9688 5 14.2031 4.76562 14.2969 4.4375C14.625 3.26562 15.8438 2.46875 17.2031 2.89062C17.8594 3.07812 18.4219 3.64062 18.6094 4.29688C19.0781 5.84375 17.9531 7.25 16.5 7.25H0.75C0.328125 7.25 0 7.625 0 8V8.75C0 9.17188 0.328125 9.5 0.75 9.5ZM7.5 11H0.75C0.328125 11 0 11.375 0 11.75V12.5C0 12.9219 0.328125 13.25 0.75 13.25H7.5C8.95312 13.25 10.0781 14.7031 9.60938 16.25C9.42188 16.9062 8.85938 17.4688 8.20312 17.6562C6.84375 18.0781 5.625 17.2812 5.29688 16.1094C5.20312 15.7812 4.96875 15.5469 4.59375 15.5469H3.75C3.32812 15.5469 2.95312 15.9219 3.04688 16.3438C3.46875 18.7344 5.8125 20.4688 8.4375 19.9062C10.1719 19.5781 11.5312 18.1719 11.8594 16.4844C12.4688 13.5781 10.2656 11 7.5 11ZM18.5156 11H11.3906C11.6719 11.2344 11.9062 11.4688 12.1406 11.75C12.5156 12.2188 12.7969 12.7344 12.9844 13.25H18.6094C20.1562 13.25 21.5625 14.4219 21.7031 15.9688C21.8906 17.75 20.4844 19.25 18.7031 19.25C17.4375 19.25 16.3125 18.4531 15.8906 17.2812C15.8438 17.1406 15.7031 17 15.5625 17H14.0156C13.7812 17 13.5938 17.2344 13.6406 17.4688C14.1562 19.7656 16.2656 21.5 18.75 21.5C21.7031 21.5 24.0469 19.0625 23.9531 16.1094C23.9062 13.25 21.375 11 18.5156 11Z" fill="#0071BB"/>
</svg>
