<svg width="171" height="53" viewBox="0 0 171 53" fill="none" xmlns="http://www.w3.org/2000/svg">
<path d="M26.4643 0.319824C20.7783 0.319824 15.5106 2.1048 11.1977 5.14274C13.5197 5.68247 17.6041 6.89495 19.0605 9.00377C21.1424 12.0186 31.4899 42.342 31.4899 42.342C31.4899 42.342 30.5409 44.952 29.7759 43.7048L6.97773 8.83992C2.64546 13.5298 0 19.7869 0 26.6589C0 41.2066 11.8484 52.9998 26.4643 52.9998C41.0801 52.9998 52.9285 41.2066 52.9285 26.6589C52.9285 12.1111 41.0801 0.319824 26.4643 0.319824Z" fill="#0D7EC7"/>
<path d="M64.0062 0.441406H83.9227L83.1171 5.779H69.088L68.0809 12.0399H81.7885L80.9422 17.3775H67.2753L65.5013 28.5327H59.5752L64.0062 0.441406Z" fill="#0D7EC7"/>
<path d="M88.1949 0.441406H94.1617L89.7268 28.5307H83.76L88.1949 0.441406Z" fill="#0D7EC7"/>
<path d="M113.35 17.8575L117.382 28.5307H110.972L107.546 18.6999H102.627L101.054 28.5307H95.0874L99.5223 0.441406H111.497C116.416 0.441406 120.729 3.6509 119.762 9.58991C119.115 13.6842 116.737 16.5332 113.35 17.8575ZM110.327 5.61707H104.683L103.434 13.6418H109.039C111.499 13.6418 113.433 12.0361 113.795 9.66894C114.196 7.30374 112.786 5.61707 110.327 5.61707Z" fill="#0D7EC7"/>
<path d="M120.444 21.7089L126.37 20.1437C126.934 22.1503 128.669 23.5536 131.248 23.5536C133.869 23.5536 135.683 22.3489 135.885 20.4636C136.288 17.0132 129.434 17.7341 125.766 15.047C124.032 13.8037 122.58 11.4751 123.023 8.54708C123.79 3.40997 128.386 0 134.434 0C139.313 0.0404801 142.901 2.76807 143.707 6.86234L137.982 8.46805C137.498 6.46139 136.127 5.21808 133.749 5.21808C131.169 5.21808 129.434 6.74283 129.153 8.46805C128.589 11.8395 134.031 11.639 137.378 13.2042C140.684 14.488 142.861 16.8956 142.338 20.5485C141.571 25.8051 137.016 29.0551 130.445 28.976C125.08 28.8931 121.412 25.8822 120.444 21.7089Z" fill="#0D7EC7"/>
<path d="M155.034 5.89851H145.882L146.728 0.441406H170.998L170.152 5.89851H160.999L157.41 28.5307H151.484L155.034 5.89851Z" fill="#0D7EC7"/>
<path d="M58.9341 31.6113H67.2926C71.1891 31.6113 73.9857 33.7144 73.3311 37.7701C73.0328 39.5763 71.9928 40.8793 70.5946 41.6793C72.0219 42.5371 72.9147 44.0483 72.5874 46.1205C71.9328 50.2958 68.9581 52.3391 64.5852 52.3391H55.6611L58.9341 31.6113ZM65.1507 48.5185C66.2817 48.5185 67.9182 47.9267 68.1854 46.0897C68.5127 44.1659 67.0544 43.6031 65.9253 43.6031H61.4633L60.6906 48.5185H65.1507ZM66.0144 40.2567C67.2345 40.2567 68.7219 39.7536 69.0182 37.8279C69.3164 35.9928 67.9762 35.4299 66.7872 35.4299H62.7706L61.9978 40.2567H66.0144Z" fill="#0D7EC7"/>
<path d="M77.644 31.6113H82.017L79.3696 48.3123H89.6338L88.9792 52.3391H74.373L77.644 31.6113Z" fill="#0D7EC7"/>
<path d="M101.591 31.6113H106.589L111.587 52.3391H106.976L106.173 48.9329H96.9503L95.1066 52.3391H90.1082L101.591 31.6113ZM105.369 44.9659L103.405 36.8814L99.0032 44.9659H105.369Z" fill="#0D7EC7"/>
<path d="M117.417 31.6109L125.539 31.582C130.627 31.582 135.445 35.2542 134.405 41.9449C133.334 48.6376 128.485 52.3387 122.654 52.3387H114.115L117.417 31.6109ZM122.95 48.0728C126.401 48.0728 129.347 46.178 130.03 41.943C130.685 37.708 128.156 35.844 124.705 35.844L121.164 35.8729L119.201 48.0728H122.95Z" fill="#0D7EC7"/>
<path d="M138.952 31.6113H153.708L153.082 35.4897H142.76L142.045 40.0505H152.129L151.564 43.8113H141.453L140.709 48.4607H151.031L150.437 52.3391H135.681L138.952 31.6113Z" fill="#0D7EC7"/>
<path d="M153.111 47.3037L157.484 46.149C157.901 47.6294 159.181 48.6665 161.085 48.6665C163.019 48.6665 164.357 47.7779 164.507 46.3861C164.805 43.8397 159.746 44.3718 157.039 42.3882C155.759 41.4707 154.688 39.7532 155.015 37.5904C155.581 33.8007 158.972 31.2832 163.434 31.2832C167.034 31.3121 169.681 33.3265 170.276 36.3471L166.052 37.5326C165.696 36.0521 164.683 35.1346 162.928 35.1346C161.024 35.1346 159.744 36.2603 159.537 37.5326C159.121 40.0192 163.137 39.8708 165.607 41.0273C168.047 41.9757 169.652 43.7511 169.265 46.4459C168.699 50.3243 165.337 52.7241 160.488 52.6644C156.533 52.6046 153.826 50.384 153.111 47.3037Z" fill="#0D7EC7"/>
</svg>
